<svg width="114" height="59" viewBox="0 0 114 59" fill="none" xmlns="http://www.w3.org/2000/svg">
<path d="M23.786 14.6664C28.3947 16.1443 31.5045 17.7202 33.1084 19.3941C34.7123 21.0751 35.5178 23.3584 35.5178 26.251C35.5178 30.4114 33.8368 33.7804 30.4819 36.3438C27.1199 38.9073 22.6724 40.1961 17.1252 40.1961C14.9049 40.1961 12.4745 39.9649 9.83402 39.5097C7.19351 39.0544 5.64562 38.8233 5.20436 38.8233C4.67906 38.8233 4.17477 38.9143 3.67749 39.0894C3.1802 39.2645 2.61988 39.5797 1.98252 40.028L1.00195 23.8487L2.57085 23.7926C3.16619 27.5608 4.58801 30.4675 6.8433 32.4986C9.0986 34.5298 12.0053 35.5524 15.5913 35.5524C18.0147 35.5524 19.8918 35.1041 21.2156 34.2076C22.5393 33.3111 23.2047 32.0644 23.2047 30.4535C23.2047 28.1561 21.0895 26.3351 16.852 24.9973C16.3688 24.8502 16.0046 24.7382 15.7594 24.6611L11.1648 23.1483C7.8799 22.0837 5.47052 20.6829 3.94364 18.9389C2.40976 17.1949 1.64632 14.9676 1.64632 12.264C1.64632 8.64295 2.94907 5.75029 5.56857 3.58605C8.17407 1.4218 11.7181 0.336182 16.2007 0.336182C17.8256 0.336182 19.9198 0.52529 22.4833 0.910511C25.0467 1.29573 26.7978 1.48484 27.7293 1.48484C28.0865 1.48484 28.4787 1.4148 28.906 1.27472C29.3332 1.13464 29.8375 0.903507 30.4188 0.588326L31.6235 12.7403L30.0266 12.9644C28.7028 10.3869 27.0989 8.39781 25.2289 6.99C23.3518 5.58219 21.3626 4.87479 19.2544 4.87479C17.6645 4.87479 16.3828 5.253 15.3882 6.00944C14.4006 6.76587 13.9034 7.71842 13.9034 8.88108C13.9034 9.86865 14.2395 10.6741 14.9119 11.2905C15.5843 11.9068 16.9361 12.5442 18.9743 13.1956L23.793 14.6804L23.786 14.6664Z" fill="#FFFBFF"/>
<path d="M39.4023 39.3906V37.7937C40.467 37.6046 41.1954 37.1703 41.5876 36.4909C41.9798 35.8115 42.1759 34.2777 42.1759 31.8823V8.64996C42.1759 6.26159 41.9798 4.72771 41.5876 4.04132C41.1954 3.36193 40.467 2.92768 39.4023 2.73857V1.14866H65.7725C66.5779 1.14866 67.2433 1.05761 67.7896 0.868498C68.3289 0.67939 68.7492 0.392225 69.0504 0L72.2722 13.1886L70.7593 13.4127C69.6177 10.6531 67.9717 8.56591 65.8075 7.15811C63.6432 5.7503 61.0237 5.04289 57.942 5.04289C56.4081 5.04289 55.3645 5.33006 54.8042 5.89738C54.2439 6.46471 53.9637 7.69041 53.9637 9.5815V13.5318H57.1855C59.2027 13.5318 60.5545 13.2306 61.2479 12.6212C61.9413 12.0119 62.3825 10.8562 62.5926 9.13324H63.7413L66.2067 23.7436L65.0581 24.0238C64.2946 21.5794 63.3071 19.8774 62.0884 18.9319C60.8767 17.9793 59.1467 17.503 56.9124 17.503H53.9707V30.1033C53.9707 32.2885 54.3209 33.7454 55.0213 34.4738C55.7217 35.2022 57.0385 35.5664 58.9856 35.5664C62.1024 35.5664 64.862 34.6349 67.2713 32.7648C69.6807 30.9017 71.845 28.0231 73.7641 24.1429L75.2489 24.423L70.3811 40.042C70.0239 39.8178 69.6387 39.6567 69.2184 39.5517C68.7982 39.4466 68.1748 39.3976 67.3554 39.3976H39.4163L39.4023 39.3906Z" fill="#FFFBFF"/>
<path d="M78.6808 39.3906V37.7937C79.7454 37.6046 80.4739 37.1703 80.8661 36.491C81.2583 35.8116 81.4544 34.2777 81.4544 31.8823V8.64999C81.4544 6.26162 81.2583 4.72774 80.8661 4.04134C80.4739 3.36195 79.7454 2.9277 78.6808 2.73859V1.14868H96.2889V2.7456C95.1333 2.99074 94.3348 3.46701 93.8936 4.18843C93.4523 4.90984 93.2352 6.39469 93.2352 8.65699V29.0667C93.2352 31.9033 93.5714 33.6964 94.2438 34.4388C94.9161 35.1882 96.1068 35.5594 97.8298 35.5594C100.519 35.5594 102.929 34.5929 105.065 32.6598C107.201 30.7267 109.071 27.827 110.675 23.9678L111.992 24.416L107.621 40.035C107.306 39.7899 106.97 39.6218 106.613 39.5307C106.256 39.4396 105.716 39.3906 104.988 39.3906H78.6738H78.6808Z" fill="#FFFBFF"/>
<path d="M13.6158 56.8727C13.6158 56.8727 13.6648 56.8797 13.6788 56.8937C13.6929 56.9077 13.6999 56.9288 13.6999 56.9428V58.3786C13.6999 58.3786 13.6929 58.4206 13.6788 58.4416C13.6648 58.4626 13.6438 58.4626 13.6158 58.4626H2.73857C1.97513 58.4626 1.33076 58.2035 0.798458 57.6852C0.266153 57.1669 0 56.5365 0 55.8011V51.8158C0 51.0804 0.266153 50.45 0.798458 49.9317C1.33076 49.4134 1.98214 49.1543 2.73857 49.1543H13.6158C13.6158 49.1543 13.6648 49.1613 13.6788 49.1753C13.6929 49.1893 13.6999 49.2103 13.6999 49.2383V50.6742C13.6999 50.6742 13.6929 50.7092 13.6788 50.7232C13.6648 50.7372 13.6438 50.7442 13.6158 50.7442H2.73857C2.50744 50.7442 2.31133 50.8213 2.15023 50.9823C1.98914 51.1434 1.9121 51.3255 1.9121 51.5427V56.0673C1.9121 56.2844 1.98914 56.4735 2.15023 56.6276C2.31133 56.7887 2.50744 56.8657 2.73857 56.8657H13.6158V56.8727Z" fill="#FFFBFF"/>
<path d="M27.5394 49.1543C28.3029 49.1543 28.9472 49.4134 29.4795 49.9317C30.0118 50.45 30.278 51.0804 30.278 51.8158V55.8011C30.278 56.5365 30.0118 57.1669 29.4795 57.6852C28.9472 58.2035 28.2958 58.4626 27.5394 58.4626H19.3237C18.5673 58.4626 17.9229 58.2035 17.3836 57.6852C16.8443 57.1669 16.5781 56.5365 16.5781 55.8011V51.8158C16.5781 51.0804 16.8443 50.45 17.3836 49.9317C17.9229 49.4134 18.5673 49.1543 19.3237 49.1543H27.5394ZM28.3589 51.5427C28.3589 51.3255 28.2818 51.1364 28.1207 50.9823C27.9597 50.8213 27.7635 50.7442 27.5324 50.7442H19.3167C19.0926 50.7442 18.8965 50.8213 18.7354 50.9823C18.5743 51.1434 18.4902 51.3255 18.4902 51.5427V56.0673C18.4902 56.2844 18.5743 56.4735 18.7354 56.6276C18.8965 56.7887 19.0926 56.8657 19.3167 56.8657H27.5324C27.7635 56.8657 27.9597 56.7887 28.1207 56.6276C28.2818 56.4665 28.3589 56.2844 28.3589 56.0673V51.5427Z" fill="#FFFBFF"/>
<path d="M33.1582 51.8158C33.1582 51.0803 33.4244 50.457 33.9637 49.9317C34.503 49.4134 35.1473 49.1472 35.9038 49.1472H44.1195C44.8829 49.1472 45.5273 49.4064 46.0596 49.9317C46.5919 50.457 46.8581 51.0803 46.8581 51.8158V58.3855C46.8581 58.3855 46.8511 58.4205 46.8371 58.4345C46.823 58.4486 46.802 58.4556 46.774 58.4556H45.03C45.03 58.4556 44.981 58.4486 44.967 58.4345C44.953 58.4205 44.946 58.3995 44.946 58.3855V51.5496C44.946 51.3255 44.8689 51.1364 44.7078 50.9823C44.5467 50.8282 44.3506 50.7511 44.1195 50.7511H35.9038C35.6797 50.7511 35.4835 50.8282 35.3224 50.9823C35.1614 51.1364 35.0773 51.3255 35.0773 51.5496V58.3855C35.0773 58.3855 35.0703 58.4205 35.0563 58.4345C35.0423 58.4486 35.0213 58.4556 35.0003 58.4556H33.2423C33.2423 58.4556 33.1932 58.4486 33.1792 58.4345C33.1652 58.4205 33.1582 58.3995 33.1582 58.3855V51.8158Z" fill="#FFFBFF"/>
<path d="M49.7363 51.8158C49.7363 51.0803 50.0025 50.457 50.5418 49.9317C51.0811 49.4134 51.7255 49.1472 52.4819 49.1472H60.6976C61.4611 49.1472 62.1054 49.4064 62.6377 49.9317C63.17 50.457 63.4362 51.0803 63.4362 51.8158V58.3855C63.4362 58.3855 63.4292 58.4205 63.4152 58.4345C63.4012 58.4486 63.3802 58.4556 63.3521 58.4556H61.6081C61.6081 58.4556 61.5591 58.4486 61.5451 58.4345C61.5311 58.4205 61.5241 58.3995 61.5241 58.3855V51.5496C61.5241 51.3255 61.447 51.1364 61.286 50.9823C61.1249 50.8282 60.9288 50.7511 60.6976 50.7511H52.4819C52.2578 50.7511 52.0617 50.8282 51.9006 50.9823C51.7395 51.1364 51.6554 51.3255 51.6554 51.5496V58.3855C51.6554 58.3855 51.6484 58.4205 51.6344 58.4345C51.6204 58.4486 51.5994 58.4556 51.5784 58.4556H49.8204C49.8204 58.4556 49.7713 58.4486 49.7573 58.4345C49.7433 58.4205 49.7363 58.3995 49.7363 58.3855V51.8158Z" fill="#FFFBFF"/>
<path d="M68.2422 53.0065H78.5731C78.5731 53.0065 78.6221 53.0135 78.6361 53.0275C78.6501 53.0415 78.6571 53.0625 78.6571 53.0906V54.5264C78.6571 54.5264 78.6501 54.5684 78.6361 54.5894C78.6221 54.6034 78.6011 54.6104 78.5731 54.6104H68.2422V56.0743C68.2422 56.2914 68.3192 56.4805 68.4803 56.6346C68.6414 56.7957 68.8375 56.8727 69.0686 56.8727H79.9459C79.9459 56.8727 79.9949 56.8797 80.0089 56.8937C80.0229 56.9077 80.0299 56.9288 80.0299 56.9428V58.3786C80.0299 58.3786 80.0229 58.4206 80.0089 58.4416C79.9949 58.4626 79.9739 58.4626 79.9459 58.4626H69.0686C68.3052 58.4626 67.6608 58.2035 67.1285 57.6852C66.5962 57.1669 66.3301 56.5365 66.3301 55.8011V51.8158C66.3301 51.0804 66.5962 50.45 67.1285 49.9317C67.6608 49.4134 68.3122 49.1543 69.0686 49.1543H79.9459C79.9459 49.1543 79.9949 49.1613 80.0089 49.1753C80.0229 49.1893 80.0299 49.2103 80.0299 49.2383V50.6742C80.0299 50.6742 80.0229 50.7092 80.0089 50.7232C79.9949 50.7372 79.9739 50.7442 79.9459 50.7442H69.0686C68.8375 50.7442 68.6414 50.8213 68.4803 50.9823C68.3192 51.1434 68.2422 51.3255 68.2422 51.5427V53.0065Z" fill="#FFFBFF"/>
<path d="M96.5162 56.8727C96.5162 56.8727 96.5652 56.8797 96.5792 56.8937C96.5932 56.9077 96.6002 56.9288 96.6002 56.9428V58.3786C96.6002 58.3786 96.5932 58.4206 96.5792 58.4416C96.5652 58.4626 96.5442 58.4626 96.5162 58.4626H85.639C84.8755 58.4626 84.2312 58.2035 83.6988 57.6852C83.1665 57.1669 82.9004 56.5365 82.9004 55.8011V51.8158C82.9004 51.0804 83.1665 50.45 83.6988 49.9317C84.2312 49.4134 84.8825 49.1543 85.639 49.1543H96.5162C96.5162 49.1543 96.5652 49.1613 96.5792 49.1753C96.5932 49.1893 96.6002 49.2103 96.6002 49.2383V50.6742C96.6002 50.6742 96.5932 50.7092 96.5792 50.7232C96.5652 50.7372 96.5442 50.7442 96.5162 50.7442H85.639C85.4078 50.7442 85.2117 50.8213 85.0506 50.9823C84.8895 51.1434 84.8125 51.3255 84.8125 51.5427V56.0673C84.8125 56.2844 84.8895 56.4735 85.0506 56.6276C85.2117 56.7887 85.4078 56.8657 85.639 56.8657H96.5162V56.8727Z" fill="#FFFBFF"/>
<path d="M99.4855 49.2383C99.4855 49.2383 99.4925 49.1963 99.5065 49.1753C99.5205 49.1613 99.5415 49.1543 99.5626 49.1543H113.101C113.101 49.1543 113.136 49.1613 113.157 49.1753C113.171 49.1893 113.178 49.2103 113.178 49.2383V50.6742C113.178 50.6742 113.171 50.7092 113.157 50.7232C113.143 50.7372 113.122 50.7442 113.101 50.7442H107.288V58.3786C107.288 58.3786 107.281 58.4206 107.267 58.4416C107.253 58.4556 107.232 58.4626 107.211 58.4626H105.453C105.453 58.4626 105.404 58.4556 105.39 58.4416C105.376 58.4276 105.369 58.4066 105.369 58.3786V50.7442H99.5556C99.5556 50.7442 99.5205 50.7372 99.4995 50.7232C99.4855 50.7092 99.4785 50.6882 99.4785 50.6742V49.2383H99.4855Z" fill="#FFFBFF"/>
</svg>
