<svg width="114" height="59" viewBox="0 0 114 59" fill="none" xmlns="http://www.w3.org/2000/svg">
<path d="M24.3876 14.6662C28.9962 16.144 32.106 17.7199 33.7099 19.3939C35.3139 21.0748 36.1193 23.3581 36.1193 26.2508C36.1193 30.4112 34.4384 33.7801 31.0834 36.3436C27.7215 38.9071 23.2739 40.1958 17.7268 40.1958C15.5065 40.1958 13.0761 39.9647 10.4356 39.5094C7.79507 39.0542 6.24718 38.823 5.80593 38.823C5.28062 38.823 4.77634 38.9141 4.27905 39.0892C3.78177 39.2643 3.22144 39.5795 2.58408 40.0277L1.60352 23.8484L3.17242 23.7924C3.76776 27.5606 5.18957 30.4672 7.44487 32.4984C9.70016 34.5296 12.6068 35.5521 16.1929 35.5521C18.6163 35.5521 20.4934 35.1039 21.8171 34.2074C23.1409 33.3109 23.8063 32.0641 23.8063 30.4532C23.8063 28.1559 21.691 26.3349 17.4536 24.9971C16.9703 24.85 16.6061 24.7379 16.361 24.6609L11.7663 23.148C8.48146 22.0834 6.07208 20.6826 4.5452 18.9386C3.01132 17.1946 2.24789 14.9673 2.24789 12.2638C2.24789 8.6427 3.55063 5.75004 6.17014 3.5858C8.77563 1.42156 12.3197 0.335938 16.8022 0.335938C18.4272 0.335938 20.5214 0.525046 23.0848 0.910267C25.6483 1.29549 27.3993 1.4846 28.3308 1.4846C28.6881 1.4846 29.0803 1.41456 29.5075 1.27448C29.9348 1.1344 30.4391 0.903263 31.0204 0.588082L32.2251 12.7401L30.6282 12.9642C29.3044 10.3867 27.7005 8.39756 25.8304 6.98976C23.9533 5.58195 21.9642 4.87454 19.856 4.87454C18.2661 4.87454 16.9843 5.25276 15.9898 6.00919C15.0022 6.76563 14.5049 7.71817 14.5049 8.88084C14.5049 9.86841 14.8411 10.6739 15.5135 11.2902C16.1859 11.9066 17.5377 12.5439 19.5758 13.1953L24.3946 14.6802L24.3876 14.6662Z" fill="#7A2F1E"/>
<path d="M40.0039 39.3905V37.7936C41.0685 37.6044 41.7969 37.1702 42.1892 36.4908C42.5814 35.8114 42.7775 34.2775 42.7775 31.8822V8.64984C42.7775 6.26147 42.5814 4.72759 42.1892 4.0412C41.7969 3.36181 41.0685 2.92756 40.0039 2.73845V1.14854H66.374C67.1795 1.14854 67.8449 1.05748 68.3912 0.868376C68.9305 0.679268 69.3507 0.392103 69.6519 -0.00012207L72.8738 13.1884L71.3609 13.4126C70.2192 10.653 68.5733 8.56579 66.4091 7.15798C64.2448 5.75018 61.6253 5.04277 58.5435 5.04277C57.0097 5.04277 55.9661 5.32994 55.4057 5.89726C54.8454 6.46459 54.5653 7.69029 54.5653 9.58137V13.5316H57.7871C59.8043 13.5316 61.156 13.2305 61.8494 12.6211C62.5428 12.0118 62.9841 10.8561 63.1942 9.13312H64.3429L66.8083 23.7435L65.6596 24.0237C64.8962 21.5793 63.9086 19.8773 62.6899 18.9317C61.4782 17.9792 59.7482 17.5029 57.514 17.5029H54.5723V30.1031C54.5723 32.2884 54.9225 33.7452 55.6229 34.4737C56.3233 35.2021 57.64 35.5663 59.5871 35.5663C62.7039 35.5663 65.4635 34.6347 67.8729 32.7647C70.2823 30.9016 72.4465 28.023 74.3656 24.1427L75.8505 24.4229L70.9827 40.0418C70.6255 39.8177 70.2403 39.6566 69.82 39.5516C69.3998 39.4465 68.7764 39.3975 67.9569 39.3975H40.0179L40.0039 39.3905Z" fill="#7A2F1E"/>
<path d="M79.2824 39.3906V37.7937C80.347 37.6046 81.0754 37.1703 81.4676 36.491C81.8599 35.8116 82.056 34.2777 82.056 31.8823V8.64999C82.056 6.26162 81.8599 4.72774 81.4676 4.04134C81.0754 3.36195 80.347 2.9277 79.2824 2.73859V1.14868H96.8905V2.7456C95.7348 2.99074 94.9364 3.46701 94.4951 4.18843C94.0539 4.90984 93.8367 6.39469 93.8367 8.65699V29.0667C93.8367 31.9033 94.1729 33.6964 94.8453 34.4388C95.5177 35.1882 96.7084 35.5594 98.4314 35.5594C101.121 35.5594 103.53 34.5929 105.667 32.6598C107.803 30.7267 109.673 27.827 111.277 23.9678L112.594 24.416L108.223 40.035C107.908 39.7899 107.572 39.6218 107.214 39.5307C106.857 39.4396 106.318 39.3906 105.589 39.3906H79.2754H79.2824Z" fill="#7A2F1E"/>
<path d="M14.2174 56.8726C14.2174 56.8726 14.2664 56.8796 14.2804 56.8936C14.2944 56.9076 14.3014 56.9286 14.3014 56.9426V58.3785C14.3014 58.3785 14.2944 58.4205 14.2804 58.4415C14.2664 58.4625 14.2454 58.4625 14.2174 58.4625H3.34013C2.5767 58.4625 1.93233 58.2034 1.40002 57.6851C0.867715 57.1668 0.601562 56.5364 0.601562 55.801V51.8157C0.601562 51.0803 0.867715 50.4499 1.40002 49.9316C1.93233 49.4133 2.5837 49.1542 3.34013 49.1542H14.2174C14.2174 49.1542 14.2664 49.1612 14.2804 49.1752C14.2944 49.1892 14.3014 49.2102 14.3014 49.2382V50.674C14.3014 50.674 14.2944 50.7091 14.2804 50.7231C14.2664 50.7371 14.2454 50.7441 14.2174 50.7441H3.34013C3.109 50.7441 2.91289 50.8211 2.7518 50.9822C2.5907 51.1433 2.51366 51.3254 2.51366 51.5425V56.0671C2.51366 56.2843 2.5907 56.4734 2.7518 56.6275C2.91289 56.7886 3.109 56.8656 3.34013 56.8656H14.2174V56.8726Z" fill="#7A2F1E"/>
<path d="M28.141 49.1541C28.9044 49.1541 29.5488 49.4132 30.0811 49.9315C30.6134 50.4498 30.8795 51.0802 30.8795 51.8156V55.8009C30.8795 56.5363 30.6134 57.1667 30.0811 57.6849C29.5488 58.2032 28.8974 58.4624 28.141 58.4624H19.9253C19.1688 58.4624 18.5245 58.2032 17.9851 57.6849C17.4458 57.1667 17.1797 56.5363 17.1797 55.8009V51.8156C17.1797 51.0802 17.4458 50.4498 17.9851 49.9315C18.5245 49.4132 19.1688 49.1541 19.9253 49.1541H28.141ZM28.9604 51.5424C28.9604 51.3253 28.8834 51.1362 28.7223 50.9821C28.5612 50.821 28.3651 50.744 28.134 50.744H19.9183C19.6941 50.744 19.498 50.821 19.3369 50.9821C19.1758 51.1432 19.0918 51.3253 19.0918 51.5424V56.067C19.0918 56.2841 19.1758 56.4733 19.3369 56.6273C19.498 56.7884 19.6941 56.8655 19.9183 56.8655H28.134C28.3651 56.8655 28.5612 56.7884 28.7223 56.6273C28.8834 56.4662 28.9604 56.2841 28.9604 56.067V51.5424Z" fill="#7A2F1E"/>
<path d="M33.7598 51.8156C33.7598 51.0802 34.0259 50.4568 34.5652 49.9315C35.1045 49.4132 35.7489 49.1471 36.5053 49.1471H44.7211C45.4845 49.1471 46.1289 49.4062 46.6612 49.9315C47.1935 50.4568 47.4596 51.0802 47.4596 51.8156V58.3854C47.4596 58.3854 47.4526 58.4204 47.4386 58.4344C47.4246 58.4484 47.4036 58.4554 47.3756 58.4554H45.6316C45.6316 58.4554 45.5826 58.4484 45.5685 58.4344C45.5545 58.4204 45.5475 58.3994 45.5475 58.3854V51.5495C45.5475 51.3253 45.4705 51.1362 45.3094 50.9821C45.1483 50.8281 44.9522 50.751 44.7211 50.751H36.5053C36.2812 50.751 36.0851 50.8281 35.924 50.9821C35.7629 51.1362 35.6789 51.3253 35.6789 51.5495V58.3854C35.6789 58.3854 35.6719 58.4204 35.6579 58.4344C35.6438 58.4484 35.6228 58.4554 35.6018 58.4554H33.8438C33.8438 58.4554 33.7948 58.4484 33.7808 58.4344C33.7668 58.4204 33.7598 58.3994 33.7598 58.3854V51.8156Z" fill="#7A2F1E"/>
<path d="M50.3379 51.8156C50.3379 51.0802 50.604 50.4568 51.1434 49.9315C51.6827 49.4132 52.327 49.1471 53.0835 49.1471H61.2992C62.0626 49.1471 62.707 49.4062 63.2393 49.9315C63.7716 50.4568 64.0377 51.0802 64.0377 51.8156V58.3854C64.0377 58.3854 64.0307 58.4204 64.0167 58.4344C64.0027 58.4484 63.9817 58.4554 63.9537 58.4554H62.2097C62.2097 58.4554 62.1607 58.4484 62.1467 58.4344C62.1327 58.4204 62.1257 58.3994 62.1257 58.3854V51.5495C62.1257 51.3253 62.0486 51.1362 61.8875 50.9821C61.7264 50.8281 61.5303 50.751 61.2992 50.751H53.0835C52.8593 50.751 52.6632 50.8281 52.5021 50.9821C52.341 51.1362 52.257 51.3253 52.257 51.5495V58.3854C52.257 58.3854 52.25 58.4204 52.236 58.4344C52.222 58.4484 52.201 58.4554 52.1799 58.4554H50.4219C50.4219 58.4554 50.3729 58.4484 50.3589 58.4344C50.3449 58.4204 50.3379 58.3994 50.3379 58.3854V51.8156Z" fill="#7A2F1E"/>
<path d="M68.8437 53.0063H79.1747C79.1747 53.0063 79.2237 53.0133 79.2377 53.0273C79.2517 53.0413 79.2587 53.0623 79.2587 53.0903V54.5261C79.2587 54.5261 79.2517 54.5682 79.2377 54.5892C79.2237 54.6032 79.2027 54.6102 79.1747 54.6102H68.8437V56.074C68.8437 56.2911 68.9208 56.4803 69.0819 56.6343C69.243 56.7954 69.4391 56.8725 69.6702 56.8725H80.5474C80.5474 56.8725 80.5965 56.8795 80.6105 56.8935C80.6245 56.9075 80.6315 56.9285 80.6315 56.9425V58.3783C80.6315 58.3783 80.6245 58.4204 80.6105 58.4414C80.5965 58.4624 80.5755 58.4624 80.5474 58.4624H69.6702C68.9068 58.4624 68.2624 58.2032 67.7301 57.6849C67.1978 57.1667 66.9316 56.5363 66.9316 55.8009V51.8156C66.9316 51.0802 67.1978 50.4498 67.7301 49.9315C68.2624 49.4132 68.9138 49.1541 69.6702 49.1541H80.5474C80.5474 49.1541 80.5965 49.1611 80.6105 49.1751C80.6245 49.1891 80.6315 49.2101 80.6315 49.2381V50.6739C80.6315 50.6739 80.6245 50.7089 80.6105 50.723C80.5965 50.737 80.5755 50.744 80.5474 50.744H69.6702C69.4391 50.744 69.243 50.821 69.0819 50.9821C68.9208 51.1432 68.8437 51.3253 68.8437 51.5424V53.0063Z" fill="#7A2F1E"/>
<path d="M97.1178 56.8725C97.1178 56.8725 97.1668 56.8795 97.1808 56.8935C97.1948 56.9075 97.2018 56.9285 97.2018 56.9425V58.3783C97.2018 58.3783 97.1948 58.4204 97.1808 58.4414C97.1668 58.4624 97.1458 58.4624 97.1178 58.4624H86.2405C85.4771 58.4624 84.8327 58.2032 84.3004 57.6849C83.7681 57.1667 83.502 56.5363 83.502 55.8009V51.8156C83.502 51.0802 83.7681 50.4498 84.3004 49.9315C84.8327 49.4132 85.4841 49.1541 86.2405 49.1541H97.1178C97.1178 49.1541 97.1668 49.1611 97.1808 49.1751C97.1948 49.1891 97.2018 49.2101 97.2018 49.2381V50.6739C97.2018 50.6739 97.1948 50.7089 97.1808 50.723C97.1668 50.737 97.1458 50.744 97.1178 50.744H86.2405C86.0094 50.744 85.8133 50.821 85.6522 50.9821C85.4911 51.1432 85.414 51.3253 85.414 51.5424V56.067C85.414 56.2841 85.4911 56.4733 85.6522 56.6273C85.8133 56.7884 86.0094 56.8655 86.2405 56.8655H97.1178V56.8725Z" fill="#7A2F1E"/>
<path d="M100.087 49.2381C100.087 49.2381 100.094 49.1961 100.108 49.1751C100.122 49.1611 100.143 49.1541 100.164 49.1541H113.703C113.703 49.1541 113.738 49.1611 113.759 49.1751C113.773 49.1891 113.78 49.2101 113.78 49.2381V50.6739C113.78 50.6739 113.773 50.7089 113.759 50.723C113.745 50.737 113.724 50.744 113.703 50.744H107.89V58.3783C107.89 58.3783 107.883 58.4204 107.869 58.4414C107.855 58.4554 107.834 58.4624 107.813 58.4624H106.055C106.055 58.4624 106.005 58.4554 105.991 58.4414C105.977 58.4274 105.97 58.4064 105.97 58.3783V50.744H100.157C100.157 50.744 100.122 50.737 100.101 50.723C100.087 50.7089 100.08 50.6879 100.08 50.6739V49.2381H100.087Z" fill="#7A2F1E"/>
</svg>
